<svg width="32" height="32" viewBox="0 0 50 50" fill="none" xmlns="http://www.w3.org/2000/svg">
<path d="M43.75 12.9469C42.3718 13.5573 40.8895 13.9646 39.326 14.1573C40.9156 13.2135 42.1385 11.7083 42.7125 9.93021C41.225 10.8021 39.577 11.4427 37.8239 11.7802C36.4239 10.2958 34.427 9.375 32.2145 9.375C27.9645 9.375 24.5197 12.7896 24.5197 17C24.5197 17.5958 24.5895 18.176 24.7208 18.7396C18.327 18.4188 12.6562 15.3792 8.86245 10.7667C8.19578 11.8938 7.82078 13.2135 7.82078 14.6063C7.82078 17.2531 9.17599 19.5833 11.2427 20.9563C9.9812 20.9177 8.7937 20.5667 7.75412 20.0042C7.75412 20.0271 7.75412 20.0615 7.75412 20.0938C7.75412 23.7927 10.4072 26.8729 13.9239 27.574C13.2812 27.75 12.602 27.8479 11.902 27.8479C11.4052 27.8479 10.9208 27.7917 10.452 27.7073C11.4312 30.7302 14.2718 32.9396 17.6375 33.0052C15.0041 35.0469 11.6875 36.2698 8.0812 36.2698C7.45828 36.2698 6.84891 36.2344 6.24683 36.1615C9.65412 38.3188 13.7 39.5833 18.0427 39.5833C32.1937 39.5833 39.9354 27.9625 39.9354 17.8813C39.9354 17.551 39.925 17.2219 39.9093 16.8969C41.4197 15.8302 42.7218 14.4844 43.75 12.9469Z" fill="#FFC0CB"/>
</svg>
